<svg width="24" height="24" viewBox="0 0 24 24" fill="none" xmlns="http://www.w3.org/2000/svg">
<path d="M14.9701 2.24253C15.1041 1.70673 14.7783 1.1638 14.2425 1.02985C13.7067 0.895901 13.1638 1.22166 13.0299 1.75746L12.0299 5.75746C11.8959 6.29325 12.2217 6.83619 12.7575 6.97013C13.2933 7.10408 13.8362 6.77832 13.9701 6.24253L14.9701 2.24253Z" fill="white"/>
<path d="M8.94868 2.68376C8.77404 2.15982 8.20772 1.87666 7.68377 2.05131C7.15983 2.22596 6.87667 2.79228 7.05132 3.31622L8.05132 6.31622C8.22596 6.84016 8.79228 7.12332 9.31623 6.94868C9.84017 6.77403 10.1233 6.20771 9.94868 5.68376L8.94868 2.68376Z" fill="white"/>
<path d="M20.7071 4.7071C21.0976 4.31657 21.0976 3.68341 20.7071 3.29289C20.3166 2.90236 19.6834 2.90236 19.2929 3.29289L15.2929 7.29289C14.9024 7.68341 14.9024 8.31658 15.2929 8.7071C15.6834 9.09762 16.3166 9.09762 16.7071 8.7071L20.7071 4.7071Z" fill="white"/>
<path d="M22.2425 10.9701C22.7783 10.8362 23.1041 10.2933 22.9701 9.75746C22.8362 9.22166 22.2933 8.8959 21.7575 9.02985L17.7575 10.0299C17.2217 10.1638 16.8959 10.7067 17.0299 11.2425C17.1638 11.7783 17.7067 12.1041 18.2425 11.9701L22.2425 10.9701Z" fill="white"/>
<path d="M18.3162 14.0513C17.7923 13.8767 17.226 14.1598 17.0513 14.6838C16.8767 15.2077 17.1598 15.774 17.6838 15.9487L20.6838 16.9487C21.2077 17.1233 21.774 16.8402 21.9487 16.3162C22.1233 15.7923 21.8402 15.226 21.3162 15.0513L18.3162 14.0513Z" fill="white"/>
<path fill-rule="evenodd" clip-rule="evenodd" d="M3.85715 8.85699C5.63815 7.07699 9.60815 8.15999 12.7242 11.277L12.7232 11.276C15.8402 14.393 16.9232 18.363 15.1432 20.143C14.6012 20.686 13.8562 20.962 12.9942 20.997L13.0002 21L4.07815 22.163C3.77434 22.2026 3.46547 22.172 3.17539 22.0733C2.88531 21.9747 2.62178 21.8107 2.40512 21.594C2.18847 21.3774 2.02449 21.1138 1.92584 20.8238C1.82719 20.5337 1.7965 20.2248 1.83615 19.921L3.00015 11L3.00415 11.007C3.03915 10.145 3.31515 9.39899 3.85715 8.85699ZM13.8402 16.736C13.5092 15.525 12.6682 14.049 11.3102 12.69V12.691C9.95215 11.332 8.47615 10.491 7.26415 10.161C5.98915 9.81299 5.43615 10.108 5.27215 10.273C5.10815 10.436 4.81215 10.989 5.16015 12.265C5.49015 13.477 6.33215 14.953 7.69015 16.31C9.04815 17.669 10.5242 18.51 11.7362 18.84C13.0112 19.188 13.5642 18.892 13.7282 18.728C13.8922 18.564 14.1882 18.012 13.8402 16.736Z" fill="white"/>
</svg>
