<svg width="24" height="24" viewBox="0 0 24 24" fill="none" xmlns="http://www.w3.org/2000/svg">
<path d="M13.0719 20.0439C13.0719 20.3399 13.3119 20.5799 13.6089 20.5799H15.2169C15.4957 20.5884 15.7602 20.7051 15.9544 20.9054C16.1486 21.1056 16.2572 21.3735 16.2572 21.6524C16.2572 21.9313 16.1486 22.1993 15.9544 22.3995C15.7602 22.5997 15.4957 22.7164 15.2169 22.7249H8.78195C8.50317 22.7164 8.23866 22.5997 8.04448 22.3995C7.8503 22.1993 7.7417 21.9313 7.7417 21.6524C7.7417 21.3735 7.8503 21.1056 8.04448 20.9054C8.23866 20.7051 8.50317 20.5884 8.78195 20.5799H10.3919C10.6869 20.5799 10.9279 20.3399 10.9279 20.0439V17.8989C10.9279 17.6029 11.1679 17.3619 11.4639 17.3619H12.5359C12.8319 17.3619 13.0729 17.6019 13.0729 17.8989V20.0439H13.0719Z" fill="white"/>
<path fill-rule="evenodd" clip-rule="evenodd" d="M4.4919 1.2749C3.6387 1.2749 2.82044 1.61384 2.21714 2.21714C1.61384 2.82044 1.2749 3.6387 1.2749 4.4919V13.0719C1.27477 13.4944 1.35788 13.9129 1.5195 14.3033C1.68111 14.6937 1.91805 15.0485 2.21679 15.3473C2.51553 15.6461 2.87021 15.8832 3.26058 16.0449C3.65095 16.2067 4.06936 16.2899 4.4919 16.2899H19.5069C19.9295 16.29 20.348 16.2069 20.7385 16.0452C21.129 15.8835 21.4838 15.6465 21.7827 15.3477C22.0815 15.0488 22.3185 14.694 22.4802 14.3035C22.6419 13.913 22.725 13.4945 22.7249 13.0719V4.4919C22.7249 4.06936 22.6417 3.65095 22.4799 3.26058C22.3182 2.87021 22.0811 2.51553 21.7823 2.21679C21.4835 1.91805 21.1287 1.68111 20.7383 1.5195C20.3479 1.35788 19.9294 1.27477 19.5069 1.2749H4.4919ZM18.1209 6.9499C18.2206 7.04946 18.2997 7.1677 18.3536 7.29785C18.4076 7.428 18.4354 7.56751 18.4354 7.7084C18.4354 7.84929 18.4076 7.9888 18.3536 8.11895C18.2997 8.2491 18.2206 8.36734 18.1209 8.4669L14.9039 11.6839C14.8044 11.7835 14.6862 11.8625 14.5561 11.9165C14.426 11.9704 14.2866 11.9982 14.1458 11.9982C14.0049 11.9983 13.8655 11.9706 13.7354 11.9167C13.6052 11.8629 13.487 11.7839 13.3874 11.6844C13.1862 11.4834 13.0732 11.2107 13.0731 10.9263C13.073 10.7854 13.1007 10.646 13.1546 10.5159C13.2084 10.3857 13.2874 10.2675 13.3869 10.1679L14.7739 8.7809H13.0729C11.9351 8.7809 10.8439 9.23288 10.0394 10.0374C9.23488 10.8419 8.7829 11.9331 8.7829 13.0709C8.77439 13.3497 8.65766 13.6142 8.45746 13.8084C8.25726 14.0026 7.98931 14.1111 7.7104 14.1111C7.4315 14.1111 7.16355 14.0026 6.96335 13.8084C6.76314 13.6142 6.64642 13.3497 6.6379 13.0709C6.6379 11.3642 7.31587 9.72747 8.52267 8.52067C9.72947 7.31387 11.3662 6.6359 13.0729 6.6359H14.7729L13.3879 5.2499C13.1869 5.04887 13.0739 4.77621 13.0739 4.4919C13.0739 4.2076 13.1869 3.93494 13.3879 3.7339C13.5889 3.53287 13.8616 3.41993 14.1459 3.41993C14.4302 3.41993 14.7029 3.53287 14.9039 3.7339L18.1219 6.9509L18.1209 6.9499Z" fill="white"/>
</svg>
