<svg width="24" height="24" viewBox="0 0 24 24" fill="none" xmlns="http://www.w3.org/2000/svg">
<path d="M4 4H15C15.7956 4 16.5587 4.31607 17.1213 4.87868C17.6839 5.44129 18 6.20435 18 7V17C18 17.7956 17.6839 18.5587 17.1213 19.1213C16.5587 19.6839 15.7956 20 15 20H4C3.20435 20 2.44129 19.6839 1.87868 19.1213C1.31607 18.5587 1 17.7956 1 17V7C1 6.20435 1.31607 5.44129 1.87868 4.87868C2.44129 4.31607 3.20435 4 4 4Z" fill="white"/>
<path d="M18 9.118C18 8.739 18.214 8.393 18.553 8.224L21.553 6.724C21.7054 6.64783 21.8748 6.61188 22.045 6.61954C22.2152 6.62721 22.3806 6.67824 22.5256 6.7678C22.6705 6.85736 22.7902 6.98247 22.8732 7.13127C22.9563 7.28006 22.9999 7.44761 23 7.618V16.382C22.9999 16.5524 22.9563 16.7199 22.8732 16.8687C22.7902 17.0175 22.6705 17.1426 22.5256 17.2322C22.3806 17.3218 22.2152 17.3728 22.045 17.3805C21.8748 17.3881 21.7054 17.3522 21.553 17.276L18.553 15.776C18.3868 15.6932 18.2469 15.5656 18.1492 15.4077C18.0515 15.2498 17.9998 15.0677 18 14.882L16.48 12L18 9.118Z" fill="white"/>
</svg>
